<?xml version="1.0" encoding="UTF-8"?>
<!DOCTYPE svg PUBLIC "-//W3C//DTD SVG 1.1//EN" "http://www.w3.org/Graphics/SVG/1.1/DTD/svg11.dtd">
<!-- Creator: CorelDRAW 2020 (64 Bit) -->
<svg xmlns="http://www.w3.org/2000/svg" xml:space="preserve" width="71.4313mm" height="66.2404mm" version="1.1" style="shape-rendering:geometricPrecision; text-rendering:geometricPrecision; image-rendering:optimizeQuality; fill-rule:evenodd; clip-rule:evenodd"
viewBox="0 0 7142.06 6623.05"
 xmlns:xlink="http://www.w3.org/1999/xlink"
 xmlns:xodm="http://www.corel.com/coreldraw/odm/2003">
 <defs>
  <style type="text/css">
   <![CDATA[
    .fil2 {fill:#ED3237}
    .fil1 {fill:#ED3237}
    .fil0 {fill:#FFFFFF}
   ]]>
  </style>
 </defs>
 <g id="Camada_x0020_1">
  <metadata id="CorelCorpID_0Corel-Layer"/>
  <g id="_2598135610224">
   <path class="fil0" d="M5445.8 4604.33c-584.55,-299.78 -1493.67,-582.04 -2039.18,-144.11 445,489.8 1711.93,2711.61 2979.47,1374.25l-940.29 -1230.15z"/>
   <path class="fil0" d="M1593.34 2060.56l349.56 193.32c561.99,358.44 1185.64,309.91 1726.62,-40.25 -196.47,-371.63 -960.51,-1322.46 -1364.7,-1589 -529.67,-349.25 -1204.9,-328.88 -1602.79,193.57l891.31 1242.36z"/>
   <path class="fil1" d="M1593.34 2060.56l876.04 1170.35c-143.93,307.32 -1471.13,1975.29 -1852.88,2494.65 -221.19,300.89 -472.78,526.28 -616.5,897.49 349.5,-129.34 831.81,-513.65 1183.63,-729.52 1623.53,-996.06 2470.89,-2207.81 4262.17,-1289.2l-844.47 -1169.41c173.71,-439.97 2139.95,-2907.18 2540.73,-3434.92 -490.14,175.82 -3046.76,2019.48 -3684.74,2280.45 -813.27,332.7 -1163.04,167.77 -1863.98,-219.89z"/>
   <path class="fil2" d="M3960.8 91.94c390.59,0 707.23,316.64 707.23,707.25 0,390.59 -316.64,707.23 -707.23,707.23 -390.6,0 -707.24,-316.64 -707.24,-707.23 0,-390.61 316.64,-707.25 707.24,-707.25z"/>
  </g>
 </g>
</svg>
