<?xml version="1.0" encoding="UTF-8"?>
<!DOCTYPE svg PUBLIC "-//W3C//DTD SVG 1.1//EN" "http://www.w3.org/Graphics/SVG/1.1/DTD/svg11.dtd">
<!-- Creator: CorelDRAW 2020 (64 Bit) -->
<svg xmlns="http://www.w3.org/2000/svg" xml:space="preserve" width="63.3071mm" height="23.2588mm" version="1.1" style="shape-rendering:geometricPrecision; text-rendering:geometricPrecision; image-rendering:optimizeQuality; fill-rule:evenodd; clip-rule:evenodd"
viewBox="0 0 106.69 39.2"
 xmlns:xlink="http://www.w3.org/1999/xlink"
 xmlns:xodm="http://www.corel.com/coreldraw/odm/2003">
 <defs>
  <style type="text/css">
   <![CDATA[
    .fil2 {fill:#FEFEFE}
    .fil1 {fill:#FEFEFE}
    .fil4 {fill:#E82528}
    .fil0 {fill:#ED454C}
    .fil3 {fill:#FBFAFB}
    .fil5 {fill:#FEFEFE;fill-rule:nonzero}
   ]]>
  </style>
 </defs>
 <g id="Camada_x0020_1">
  <metadata id="CorelCorpID_0Corel-Layer"/>
  <g id="_2598272962320">
   <g>
    <path class="fil0" d="M86.18 12.76c-0.15,0.47 -0.87,0.59 -1.32,0.78 -0.83,0.35 -2.26,0.84 -3.15,0.89 -3.32,0.2 -4.84,-0.73 -7.71,-2.25 0.25,0.5 0.86,1.24 1.23,1.78l2.49 3.3c1.36,1.65 1.53,1.8 0.84,2.7 -1.37,1.77 -3.05,3.99 -4.29,5.8l-9.76 13.43c1.6,-0.96 3.25,-2.36 4.56,-3.45 2.35,-1.72 4.78,-4.44 7.16,-6.33 4.01,-3.17 8.49,-5.56 13.61,-5.98 2.86,0.03 2.26,0.46 3.09,0.52 0.01,-0.43 -1.56,-2.15 -1.93,-2.87 -0.59,-1.86 0.08,-3.8 1.34,-5.29 1.64,-2.2 3.17,-4.48 4.86,-6.56 0.74,-0.81 1.11,-1.34 1.96,-2.16 1.59,-1.54 1.54,-1.67 3.26,-3.1l1.2 -1.15c3.28,-2.93 -1.47,2.89 -1.48,2.93 0.33,-0.26 0.4,-0.37 0.59,-0.67 0.52,-0.82 3.85,-4.47 3.95,-5.1 -0.48,0.02 -2.3,1.12 -2.81,1.42l-5.01 3.3c-0.69,0.53 -1.73,1.15 -2.51,1.61l-7.61 4.93c-0.49,0.31 -2.13,1.47 -2.57,1.5z"/>
    <path class="fil1" d="M63.24 25.6c-0.15,-0.87 -0.13,-10.53 0.05,-11.07 0.88,-0.12 1.72,-0.35 2.65,-0.14 0.72,0.16 1.41,0.46 1.92,0.98 1.13,1.14 1.28,3.17 1.28,4.67 -0,1.41 -0.17,3.57 -1.22,4.63 -1.22,1.22 -3,1.33 -4.67,0.94zm11.02 -3.42c0.32,-2.66 0.11,-5.63 -1.12,-8.08 -2.36,-4.68 -9.47,-5.45 -13.82,-3.57 -1.2,0.57 -1.23,0.08 -1.23,2.76l0 13.94c0.01,2.04 -0.21,2.28 1.83,2.8 1.26,0.32 2.79,0.46 4.11,0.48 2.63,0.03 5.12,-0.29 7.19,-2.07 1.83,-1.57 2.75,-3.9 3.03,-6.26z"/>
    <path class="fil2" d="M43.62 18.51c2.27,2.44 5.31,6.74 6.23,9.79 0.55,1.83 0.93,1.94 2.58,2.08 0.84,0.07 2.27,0.04 3.04,-0.36 0.35,-0.18 0.42,-0.76 0.42,-1.11l0.01 -8.52c0,-3.23 0.06,-6.39 0.01,-9.64 -0.05,-0.58 -0.25,-0.89 -0.71,-0.93 -0.23,-0.02 -0.61,-0.07 -1.36,-0.08 -0.58,-0.01 -1.77,-0.06 -2.24,0.18 -0.74,0.38 -0.58,1.07 -0.58,1.86l0 7.3c-0.01,1.91 1.01,2.94 0.81,3.98 -0.57,0.04 -0.53,-0.5 -0.65,-0.97 -0.37,-1.44 -2.46,-5.43 -3.33,-6.75l-2.06 -2.89c-0.48,-0.64 -1.02,-1.21 -1.57,-1.8 -1.23,-1.33 -5.02,-0.87 -5.52,-0.52 -0.16,0.09 -0.27,0.21 -0.3,0.37l0.05 19.16c0.21,0.97 3.38,0.78 4.17,0.55 0.76,-0.22 0.69,-1.1 0.7,-1.77 0,-0.84 0,-1.68 -0,-2.53 -0,-1.68 -0.01,-3.37 0,-5.05 0,-0.72 0.17,-1.85 -0.34,-2.38 -0.42,-0.44 -0.91,-0.75 -1.19,-1.25 0.57,0.03 1.41,0.83 1.82,1.27z"/>
    <path class="fil3" d="M74 12.18c0.46,0.24 0.83,0.44 1.29,0.7 2.08,1.19 4.05,1.7 6.42,1.55 0.89,-0.05 2.32,-0.54 3.15,-0.89 0.45,-0.19 1.17,-0.31 1.32,-0.78l-5.03 -6.4c-0.61,-0.66 -1.28,-1.31 -1.92,-1.92 -2.08,-2 -6.04,-3.08 -8.47,-1.54 -0.57,0.37 -1.78,1.11 -2.01,1.77 -0.02,0.35 2.15,3.16 2.58,3.84 0.4,0.63 0.89,1.2 1.35,1.83 0.32,0.44 0.98,1.56 1.31,1.84z"/>
    <path class="fil4" d="M84.75 26.26c0.1,-0.02 1.28,-0.51 2.63,-0.75 1.99,-0.34 5,-0.22 6.84,0.6 0.5,0.22 1.01,0.39 1.55,0.62 1.35,0.57 0.86,0.51 1.34,0.88 -0,-0.01 -1.74,-2.57 -1.86,-2.7 -0.72,-0.74 -2.66,-3.82 -3.36,-4.19 0.05,-1.46 1.3,-2.58 1.97,-3.71 2.32,-3.05 4.54,-6.27 6.85,-9.25 0.43,-0.56 3.68,-4.71 3.74,-4.75 0.18,-0.16 1.37,-1.7 1.37,-1.7 -3.09,0.77 -18.07,16.56 -14.8,19.77 0.37,0.72 1.94,2.44 1.93,2.87 -0.83,-0.07 -0.23,-0.5 -3.09,-0.52 -9.27,0.75 -15.26,7.07 -21.23,12.02 -0.22,0.18 -3.63,3.24 -3.71,3.26 5.73,-2.9 14.93,-10.74 19.85,-12.46z"/>
    <path class="fil2" d="M35.68 10.03c-0.5,-0.32 -1.55,-0.24 -2.05,-0.24 -0.46,-0 -1.03,-0.01 -1.49,0.05 -0.76,0.1 -0.92,0.03 -1.12,0.56 -0.18,1.09 -0.06,12.78 -0.07,14.96 -0.02,5.38 -0.48,5.02 3.33,4.93 1.1,-0.03 1.9,0.02 1.93,-1.28 0.05,-2.06 -0.01,-4.2 0,-6.27l0 -9.45c0,-0.46 0.13,-2.12 -0.12,-2.69 -0.06,-0.13 -0.32,-0.51 -0.43,-0.58z"/>
    <path class="fil2" d="M96.95 37.04c0.59,0.01 1.28,0.01 1.84,-0.14 1.01,-0.27 3.27,-1.77 3.42,-2.19 0.14,-0.38 -2.53,-3.67 -2.69,-3.76 -0.13,-0.49 -2.01,-2.65 -2.43,-3.33 -0.48,-0.37 0.01,-0.31 -1.34,-0.88 -0.54,-0.23 -1.05,-0.4 -1.55,-0.62 -1.85,-0.83 -4.86,-0.95 -6.84,-0.6 -1.35,0.23 -2.7,0.77 -2.8,0.79 3.32,3.32 7.03,10.64 12.37,10.74z"/>
    <path class="fil2" d="M3.89 27.61c0.92,2.4 0.7,2.37 2.55,2.68 1.54,0.26 3.3,0.12 4.81,-0.16 0.83,-0.15 0.95,-0.72 1.26,-1.41 0.94,-2.1 1.68,-4.15 1.98,-6.44 0.14,-1.09 0.16,-2.92 0.23,-3.26l0.43 -0.03c0.11,0.92 -0.1,3.9 0.49,5.22 0.16,1.53 0.84,2.95 1.34,4.37 0.68,1.94 1.84,1.88 3.66,1.9 1.32,0.02 2.28,-0.13 3.56,-0.23 0.97,-0.48 2.47,-5.26 2.88,-6.36 0.67,-2.06 3.41,-12.28 2.82,-13.49 -0.29,-0.59 -1.99,-0.61 -2.61,-0.61 -2.1,0 -2.88,-0.07 -2.93,1.92 -0.02,0.78 -0.96,6.18 -1.14,6.69 -0.48,1.63 -1.11,3.2 -1.58,4.75 -0.29,0.94 -0.17,1.89 -0.3,2.87l-0.26 -0c-0.14,-0.31 -0.12,-0.77 -0.14,-1.13 -0.37,-1.61 -0.65,-3.08 -1.18,-4.64 -1.07,-3.19 -1.4,-6.54 -1.98,-9.84 -0.16,-0.65 -4.76,-1.34 -5.53,0.21 -0.48,0.96 -0.59,2.13 -0.7,3.22l-0.94 4.77c-0.39,1.19 -0.62,2.32 -1.08,3.48 -0.65,1.62 -0.46,2.26 -0.64,3.91l-0.22 0c-0.22,-0.35 -0.17,-1 -0.23,-1.43 -0.29,-2.1 -0.36,-1.77 -1.01,-3.78 -1.38,-4.25 -1.1,-3.88 -1.77,-7.75 -0.47,-2.7 0.51,-3.29 -3.15,-3.27 -1.57,0.01 -1.88,-0.19 -2.49,0.77 0.08,2.46 1.08,7.69 1.7,10.17 0.6,2.39 1.31,4.57 2.19,6.88z"/>
    <g>
     <path class="fil4" d="M87.98 0.26c2.39,0 4.32,1.94 4.32,4.32 0,2.39 -1.94,4.32 -4.32,4.32 -2.39,0 -4.32,-1.94 -4.32,-4.32 0,-2.39 1.94,-4.32 4.32,-4.32z"/>
     <path class="fil0" d="M87.47 0.38c1.85,0 3.35,1.5 3.35,3.35 0,1.85 -1.5,3.35 -3.35,3.35 -1.85,0 -3.35,-1.5 -3.35,-3.35 0,-1.85 1.5,-3.35 3.35,-3.35z"/>
    </g>
    <path class="fil5" d="M12.65 36.42l0 -2.86 1 0 0 -0.45 -2.48 0 0 0.45 1 0 0 2.86 0.48 0zm2.07 -1.42l1.5 0 0 -0.48 -1.5 0 0 -0.93 1.53 0 0 -0.48 -2.02 0 0 3.31 2.02 0 0 -0.48 -1.54 0 0 -0.94zm2.67 -1.9l-0.48 0 0 3.32 2.04 0 0 -0.48 -1.56 0 0 -2.84zm2.65 1.9l1.5 0 0 -0.48 -1.5 0 0 -0.93 1.53 0 0 -0.48 -2.02 0 0 3.31 2.02 0 0 -0.48 -1.54 0 0 -0.94zm2.13 -0.23c0,0.46 0.19,0.88 0.47,1.18 0.29,0.3 0.7,0.49 1.15,0.49 0.77,0 1.38,-0.51 1.57,-1.26l-0.47 0c-0.17,0.5 -0.6,0.79 -1.1,0.79 -0.32,0 -0.61,-0.14 -0.81,-0.36 -0.21,-0.22 -0.34,-0.51 -0.34,-0.84 0,-0.34 0.13,-0.63 0.34,-0.85 0.21,-0.22 0.5,-0.36 0.81,-0.36 0.49,0 0.9,0.25 1.07,0.75l0.47 0c-0.19,-0.75 -0.79,-1.22 -1.54,-1.22 -0.45,0 -0.86,0.19 -1.15,0.49 -0.28,0.3 -0.47,0.72 -0.47,1.19zm6.71 -0.01c0,0.35 -0.14,0.65 -0.36,0.87 -0.22,0.23 -0.54,0.36 -0.87,0.36 -0.33,0 -0.63,-0.14 -0.86,-0.36 -0.22,-0.22 -0.36,-0.53 -0.36,-0.87 0,-0.34 0.14,-0.65 0.36,-0.87 0.22,-0.23 0.53,-0.36 0.86,-0.36 0.33,0 0.64,0.14 0.87,0.36 0.22,0.22 0.36,0.52 0.36,0.87zm-2.93 0c0,0.47 0.19,0.9 0.5,1.21 0.31,0.32 0.74,0.51 1.21,0.51 0.47,0 0.9,-0.19 1.21,-0.51 0.3,-0.31 0.5,-0.74 0.5,-1.21 0,-0.47 -0.19,-0.9 -0.5,-1.21 -0.31,-0.31 -0.74,-0.51 -1.21,-0.51 -0.47,0 -0.9,0.19 -1.21,0.51 -0.3,0.31 -0.5,0.74 -0.5,1.21zm4.58 -0.68l0.87 1.29 0.27 0 0.87 -1.29 0 2.34 0.47 0 0 -3.32 -0.38 0 -1.09 1.61 -1.09 -1.61 -0.39 0 0 3.32 0.48 0 0 -2.34zm4.45 2.37c0.57,0 1.22,-0.35 1.22,-1.02l0 -2.32 -0.48 0 0 2.32c0,0.36 -0.39,0.55 -0.74,0.55 -0.35,0 -0.74,-0.18 -0.74,-0.54l0 -2.32 -0.48 0 0 2.32c0,0.68 0.64,1.03 1.23,1.03zm2.45 -0.03l0 -2.32 1.6 2.32 0.38 0 0 -3.32 -0.47 0 0 2.34 -1.62 -2.34 -0.37 0 0 3.32 0.48 0zm4.39 -3.31l-1.71 0 0 0.45 0.62 0 0 2.4 -0.62 0 0 0.46 1.71 0 0 -0.46 -0.62 0 0 -2.4 0.62 0 0 -0.45zm0.39 1.66c0,0.46 0.19,0.88 0.47,1.18 0.29,0.3 0.7,0.49 1.15,0.49 0.77,0 1.38,-0.51 1.57,-1.26l-0.47 0c-0.17,0.5 -0.6,0.79 -1.1,0.79 -0.32,0 -0.61,-0.14 -0.81,-0.36 -0.21,-0.22 -0.34,-0.51 -0.34,-0.84 0,-0.34 0.13,-0.63 0.34,-0.85 0.21,-0.22 0.5,-0.36 0.81,-0.36 0.49,0 0.9,0.25 1.07,0.75l0.47 0c-0.19,-0.75 -0.79,-1.22 -1.54,-1.22 -0.45,0 -0.86,0.19 -1.15,0.49 -0.28,0.3 -0.47,0.72 -0.47,1.19zm5.08 -0.95l0.5 1.31 -0.99 0 0.5 -1.31zm0.99 2.6l0.51 0 -1.33 -3.36 -0.35 0 -1.33 3.36 0.52 0 0.32 -0.84 1.35 0 0.32 0.84zm0.82 -1.65c0,0.46 0.19,0.88 0.47,1.18 0.24,0.26 0.56,0.43 0.93,0.48l-0.16 0.37c0.41,-0.05 0.52,0.1 0.49,0.21 -0.03,0.14 -0.32,0.26 -0.51,0l-0.3 0.14c0.22,0.58 1.15,0.43 1.21,-0.13 0.02,-0.22 -0.13,-0.43 -0.43,-0.45l0.06 -0.15c0.71,-0.05 1.25,-0.54 1.43,-1.26l-0.47 0c-0.17,0.5 -0.6,0.79 -1.1,0.79 -0.32,0 -0.61,-0.14 -0.81,-0.36 -0.21,-0.22 -0.34,-0.51 -0.34,-0.84 0,-0.34 0.13,-0.63 0.34,-0.85 0.21,-0.22 0.5,-0.36 0.81,-0.36 0.49,0 0.9,0.25 1.07,0.75l0.47 0c-0.19,-0.75 -0.79,-1.22 -1.54,-1.22 -0.45,0 -0.86,0.19 -1.15,0.49 -0.28,0.3 -0.47,0.72 -0.47,1.19zm6.01 -2.46c-0.08,0.12 -0.16,0.18 -0.25,0.18 -0.13,-0 -0.28,-0.18 -0.5,-0.18 -0.2,0 -0.41,0.13 -0.54,0.37l0.28 0.17c0.09,-0.13 0.2,-0.18 0.27,-0.18 0.16,0 0.29,0.17 0.5,0.17 0.21,-0 0.4,-0.13 0.5,-0.36l-0.26 -0.18zm0.68 2.45c0,0.34 -0.14,0.64 -0.35,0.86 -0.22,0.22 -0.53,0.36 -0.86,0.36 -0.33,0 -0.63,-0.14 -0.85,-0.36 -0.22,-0.22 -0.36,-0.52 -0.36,-0.86 0,-0.34 0.14,-0.64 0.36,-0.86 0.22,-0.22 0.52,-0.36 0.85,-0.36 0.33,0 0.63,0.14 0.86,0.36 0.21,0.22 0.35,0.52 0.35,0.86zm-2.89 0c0,0.47 0.19,0.89 0.49,1.2 0.3,0.31 0.73,0.5 1.19,0.5 0.47,0 0.89,-0.19 1.2,-0.5 0.3,-0.31 0.49,-0.73 0.49,-1.2 0,-0.47 -0.19,-0.89 -0.49,-1.2 -0.31,-0.31 -0.73,-0.5 -1.2,-0.5 -0.46,0 -0.89,0.19 -1.19,0.5 -0.3,0.31 -0.49,0.73 -0.49,1.2zm4.56 0.24l1.5 0 0 -0.48 -1.5 0 0 -0.93 1.53 0 0 -0.48 -2.02 0 0 3.31 2.02 0 0 -0.48 -1.54 0 0 -0.94zm4.5 -1.06c-0.09,-0.61 -0.62,-0.87 -1.13,-0.87 -0.38,0 -0.78,0.15 -1,0.44 -0.14,0.18 -0.2,0.41 -0.18,0.63l0 -0c0.05,0.69 0.66,0.81 1.17,0.86 0.33,0.03 0.67,0.08 0.73,0.33 0.01,0.04 0.01,0.08 0.01,0.11 0,0.34 -0.39,0.54 -0.74,0.54 -0.31,0 -0.68,-0.16 -0.72,-0.47l0 0.02 -0 -0.07 -0.48 0.01 0 0.09c0.06,0.59 0.68,0.9 1.19,0.9 0.6,0 1.23,-0.37 1.23,-1.01 0,-0.07 -0.01,-0.15 -0.02,-0.22 -0.13,-0.53 -0.69,-0.65 -1.15,-0.71 -0.36,-0.03 -0.73,-0.08 -0.75,-0.42 -0.01,-0.11 0.01,-0.22 0.08,-0.31 0.13,-0.17 0.38,-0.25 0.6,-0.25 0.29,-0 0.61,0.12 0.68,0.42l0.47 -0.02z"/>
   </g>
  </g>
 </g>
</svg>
