<?xml version="1.0" encoding="UTF-8"?>
<!DOCTYPE svg PUBLIC "-//W3C//DTD SVG 1.1//EN" "http://www.w3.org/Graphics/SVG/1.1/DTD/svg11.dtd">
<!-- Creator: CorelDRAW 2020 (64 Bit) -->
<svg xmlns="http://www.w3.org/2000/svg" xml:space="preserve" width="180.043mm" height="66.2404mm" version="1.1" style="shape-rendering:geometricPrecision; text-rendering:geometricPrecision; image-rendering:optimizeQuality; fill-rule:evenodd; clip-rule:evenodd"
viewBox="0 0 8805.04 3239.5"
 xmlns:xlink="http://www.w3.org/1999/xlink"
 xmlns:xodm="http://www.corel.com/coreldraw/odm/2003">

 <g id="Camada_x0020_1">
  <metadata id="CorelCorpID_0Corel-Layer"/>
  <g id="_2598277070000">
   <path class="fil0" d="M7975.36 2252.09c-285.92,-146.63 -730.59,-284.69 -997.42,-70.49 217.66,239.57 837.35,1326.32 1457.34,672.18l-459.92 -601.7z"/>
   <path class="fil0" d="M474.01 2495.96c146.66,21.47 307.1,21.47 455.79,0 46.19,-6.48 74.14,-30.79 90.34,-77.78 86.3,-192.05 146.27,-383.27 179.49,-570.86 12.96,-94.4 17.01,-163.27 17.01,-274.29l33.63 0c0,137.75 2.43,206.63 10.53,275.1 30.8,193.25 88.32,384.48 170.57,570.04 15.4,46.59 43.35,71.31 89.95,78.19 145.45,20.66 301.84,20.66 445.26,-0.41 45.38,-6.48 73.33,-29.57 91.57,-74.55 210.68,-472.4 345.99,-975.19 414.87,-1498.24 6.89,-56.31 -17.42,-93.59 -71.3,-101.29 -100.48,-14.99 -207.03,-14.59 -307.51,0.81 -50.24,8.1 -75.35,40.51 -79.81,93.59 -32.41,340.73 -101.69,667.69 -216.75,970.34 -24.72,72.93 -32.41,140.58 -32.41,268.21l-33.23 0c0,-123.57 -8.1,-191.63 -36.86,-285.22 -102.91,-291.7 -175.02,-622.71 -211.9,-943.6 -5.27,-51.85 -29.98,-83.86 -79,-92.37 -107.77,-18.24 -231.75,-18.64 -339.51,0 -49.02,8.5 -73.74,40.51 -79.01,92.77 -36.46,320.48 -108.18,651.07 -210.67,941.57 -28.77,93.59 -36.47,162.07 -36.47,286.85l-33.22 0c0,-126.41 -8.1,-194.47 -34.03,-270.64 -115.06,-302.64 -184.34,-628.79 -217.16,-968.3 -4.05,-53.08 -29.17,-85.49 -79.01,-93.19 -98.85,-15.4 -203.39,-15.8 -302.24,-0.81 -53.08,7.7 -77.79,44.57 -72.12,100.48 57.93,523.05 182.32,1025.43 382.05,1498.24 17.83,45.38 45.38,68.88 91.16,75.35l0 0zm2153.16 5.27c93.18,14.58 191.63,14.58 284.82,-0.41 50.24,-8.1 74.55,-42.14 74.55,-96.43l0 -1485.69c0,-54.29 -24.72,-88.32 -75.76,-96.83 -92.78,-14.99 -190.83,-14.99 -283.61,0 -51.05,8.5 -75.77,42.54 -75.77,96.83l0 1485.69c0,54.29 24.72,88.73 75.77,96.83l0 0zm615.62 -0.81c83.06,12.96 170.16,12.56 253.22,0 50.24,-8.1 74.54,-42.13 74.54,-96.43l0 -820.43c-40.11,-54.29 -94.8,-115.47 -151.12,-165.3l51.45 0c284.82,262.13 506.04,593.14 670.93,1001.12 17.02,45.79 42.55,71.31 88.33,79.01 97.64,16.61 204.19,17.42 302.64,2.02 51.05,-8.51 75.76,-42.54 75.76,-96.83l0 -1485.28c0,-53.88 -24.31,-88.32 -75.35,-96.83 -82.65,-13.37 -170.17,-13.37 -252.82,0 -51.05,8.51 -75.36,42.94 -75.36,96.83l0 734.54c29.58,80.62 55.1,165.3 74.96,253.62l-34.03 0c-136.94,-401.51 -356.13,-771 -603.27,-1025.84 -27.95,-32.01 -55.1,-47.4 -96.02,-54.29 -98.45,-17.42 -203.79,-18.64 -303.46,-3.65 -51.05,8.1 -76.17,42.14 -76.17,96.43l0 1484.07c0,55.1 24.71,89.54 75.76,97.23l0 0zm2084.7 23.5c512.11,0 805.85,-314.8 805.85,-862.57 0,-551.01 -291.71,-862.57 -805.85,-862.57 -163.68,0 -331.41,30.8 -471.19,85.49 -44.97,18.23 -64.82,52.26 -64.82,102.91l0 1375.49c0,52.66 22.29,86.7 70.5,100.88 140.59,38.49 306.3,60.37 465.52,60.37l0 0zm36.46 -395.43c-61.98,0 -117.48,-4.45 -152.33,-11.75l0.41 -908.35c42.95,-12.16 99.26,-19.04 153.56,-19.04 224.04,0 335.05,156.39 335.05,472 0,312.38 -111.42,467.14 -336.68,467.14l0 0z"/>
   <path class="fil0" d="M6091.02 1007.87l170.98 94.56c274.88,175.32 579.93,151.59 844.53,-19.69 -96.1,-181.78 -469.81,-646.85 -667.51,-777.22 -259.08,-170.83 -589.35,-160.86 -783.96,94.68l435.96 607.67z"/>
   <path class="fil1" d="M6091.02 1007.87l428.49 572.45c-70.4,150.32 -719.57,966.17 -906.29,1220.19 -108.19,147.18 -231.25,257.42 -301.54,438.98 170.95,-63.26 406.86,-251.24 578.94,-356.83 794.11,-487.2 1208.57,-1079.9 2084.74,-630.58l-413.05 -571.99c84.97,-215.2 1046.7,-1421.98 1242.73,-1680.1 -239.74,86 -1490.25,987.78 -1802.3,1115.42 -397.79,162.73 -568.87,82.06 -911.72,-107.55z"/>
   <path class="fil2" d="M1119.23 2778.41l-69.36 0 0 207.43 -49.26 0 0 -207.43 -69.36 0 0 -43.31 187.98 0 0 43.31zm227.89 207.43l-165.69 0 0 -250.74 165.69 0 0 40.18 -117.99 0 0 59.93 116.43 0 0 39.23 -116.43 0 0 69.03 117.99 0 0 42.37zm238.25 0l-169.76 0 0 -250.74 49.58 0 0 203.67 120.19 0 0 47.07zm224.75 0l-165.69 0 0 -250.74 165.69 0 0 40.18 -117.99 0 0 59.93 116.42 0 0 39.23 -116.42 0 0 69.03 117.99 0 0 42.37zm297.87 -45.19c-12.55,15.27 -27.77,27.41 -45.65,36.4 -17.89,8.99 -37.61,13.49 -59.16,13.49 -18.62,0 -36.09,-3.39 -52.41,-10.2 -16.32,-6.8 -30.49,-16.05 -42.57,-27.77 -12.08,-11.71 -21.6,-25.47 -28.56,-41.27 -6.95,-15.79 -10.47,-32.79 -10.47,-50.99 0,-18.2 3.51,-35.2 10.47,-50.99 6.96,-15.8 16.47,-29.61 28.56,-41.43 12.08,-11.82 26.25,-21.07 42.57,-27.77 16.32,-6.69 33.79,-10.04 52.41,-10.04 21.55,0 41.27,4.5 59.16,13.49 17.88,9 32.79,20.71 44.71,35.14l-33.57 34.52c-7.75,-11.09 -17.73,-20.03 -29.97,-26.83 -12.24,-6.8 -25.68,-10.2 -40.32,-10.2 -11.72,0 -22.75,2.24 -33.11,6.74 -10.35,4.5 -19.4,10.57 -27.14,18.2 -7.74,7.64 -13.86,16.53 -18.36,26.67 -4.5,10.15 -6.75,20.97 -6.75,32.48 0,11.3 2.25,22.02 6.75,32.16 4.5,10.15 10.62,19.04 18.36,26.67 7.74,7.64 16.79,13.7 27.14,18.2 10.36,4.5 21.39,6.75 33.11,6.75 15.48,0 29.18,-3.51 41.11,-10.51 11.92,-7.01 21.87,-16.27 29.81,-27.77l33.89 34.84zm302.58 -80.34c0,17.99 -3.5,34.94 -10.51,50.84 -7,15.9 -16.53,29.71 -28.66,41.42 -12.13,11.72 -26.26,20.97 -42.31,27.77 -16.1,6.81 -33.21,10.2 -51.41,10.2 -18.2,0 -35.35,-3.39 -51.57,-10.2 -16.16,-6.8 -30.33,-16.05 -42.46,-27.77 -12.13,-11.71 -21.66,-25.47 -28.66,-41.27 -7.01,-15.79 -10.52,-32.79 -10.52,-50.99 0,-18.2 3.51,-35.25 10.52,-51.15 7,-15.9 16.53,-29.71 28.66,-41.42 12.13,-11.71 26.31,-20.92 42.46,-27.62 16.22,-6.69 33.37,-10.04 51.57,-10.04 18.2,0 35.31,3.35 51.41,10.04 16.06,6.7 30.18,15.95 42.31,27.77 12.13,11.82 21.66,25.63 28.66,41.43 7.01,15.79 10.51,32.79 10.51,50.99zm-48.64 0c0,-11.51 -2.2,-22.33 -6.59,-32.48 -4.4,-10.15 -10.47,-19.03 -18.1,-26.67 -7.63,-7.63 -16.58,-13.7 -26.88,-18.2 -10.25,-4.5 -21.18,-6.74 -32.69,-6.74 -11.71,0 -22.75,2.24 -33,6.74 -10.3,4.5 -19.24,10.57 -26.88,18.2 -7.64,7.64 -13.7,16.53 -18.1,26.67 -4.39,10.15 -6.59,20.97 -6.59,32.48 0,11.3 2.2,22.07 6.59,32.32 4.4,10.25 10.46,19.2 18.1,26.83 7.63,7.63 16.57,13.7 26.88,18.2 10.25,4.49 21.29,6.74 33,6.74 11.51,0 22.44,-2.24 32.69,-6.74 10.3,-4.5 19.24,-10.57 26.88,-18.2 7.63,-7.64 13.7,-16.58 18.1,-26.83 4.39,-10.25 6.59,-21.02 6.59,-32.32zm367.85 125.52l-47.7 0 0 -167.57 -79.07 133.37 -75.95 -134.63 0 168.83 -47.69 0 0 -251.05 54.92 0 69.67 124.59 72.8 -124.59 53.04 0 0 251.05zm297.87 -251.05l0 136.2c0,16.74 -2.51,32.32 -7.53,46.76 -5.02,14.43 -12.29,27.04 -21.81,37.81 -9.52,10.77 -21.13,19.24 -34.83,25.42 -13.7,6.18 -29.34,9.26 -46.91,9.26 -17.16,0 -32.63,-3.03 -46.45,-9.1 -13.81,-6.06 -25.57,-14.38 -35.3,-24.95 -9.73,-10.57 -17.21,-23.01 -22.44,-37.34 -5.23,-14.33 -7.85,-29.76 -7.85,-46.28l0 -137.77 48.65 0 0 138.07c0,9.63 1.35,18.68 4.07,27.15 2.72,8.48 6.7,15.85 11.93,22.12 5.23,6.27 11.77,11.24 19.62,14.91 7.84,3.66 16.78,5.49 26.82,5.49 10.68,0 19.93,-1.73 27.77,-5.18 7.84,-3.45 14.33,-8.26 19.45,-14.43 5.13,-6.18 9,-13.44 11.61,-21.81 2.61,-8.37 3.92,-17.57 3.92,-27.62l0 -138.7 49.27 0zm280.3 251.05l-47.7 0 -113.29 -176.05 0 176.05 -47.69 0 0 -251.05 54.6 0 106.38 163.81 0 -163.81 47.7 0 0 251.05zm126.53 0l-48.64 0 0 -250.74 48.64 0 0 250.74zm307.28 -45.19c-12.55,15.27 -27.77,27.41 -45.65,36.4 -17.89,8.99 -37.61,13.49 -59.16,13.49 -18.62,0 -36.09,-3.39 -52.41,-10.2 -16.32,-6.8 -30.49,-16.05 -42.57,-27.77 -12.08,-11.71 -21.6,-25.47 -28.56,-41.27 -6.95,-15.79 -10.47,-32.79 -10.47,-50.99 0,-18.2 3.51,-35.2 10.47,-50.99 6.95,-15.8 16.47,-29.61 28.56,-41.43 12.08,-11.82 26.25,-21.07 42.57,-27.77 16.32,-6.69 33.79,-10.04 52.41,-10.04 21.55,0 41.27,4.5 59.16,13.49 17.88,9 32.79,20.71 44.71,35.14l-33.58 34.52c-7.74,-11.09 -17.73,-20.03 -29.97,-26.83 -12.24,-6.8 -25.68,-10.2 -40.32,-10.2 -11.72,0 -22.75,2.24 -33.11,6.74 -10.35,4.5 -19.4,10.57 -27.14,18.2 -7.74,7.64 -13.86,16.53 -18.36,26.67 -4.5,10.15 -6.75,20.97 -6.75,32.48 0,11.3 2.25,22.02 6.75,32.16 4.5,10.15 10.62,19.04 18.36,26.67 7.74,7.64 16.79,13.7 27.14,18.2 10.36,4.5 21.39,6.75 33.11,6.75 15.48,0 29.18,-3.51 41.11,-10.51 11.92,-7.01 21.86,-16.27 29.81,-27.77l33.89 34.84zm309.48 45.19l-53.35 0 -23.23 -50.21 -121.75 0 -23.54 50.21 -53.35 0 118.62 -251.05 37.97 0 118.62 251.05zm-95.71 -90.69l-41.74 -90.38 -42.37 90.38 84.11 0zm360.94 45.5c-11.51,13.81 -25.16,25.05 -40.95,33.73 -15.79,8.68 -33.21,13.86 -52.25,15.53l-3.14 13.81c10.46,1.68 18.15,5.65 23.06,11.93 4.92,6.27 7.37,13.07 7.37,20.39 0,3.56 -0.79,7.12 -2.35,10.68 -1.57,3.55 -3.87,6.8 -6.9,9.73 -3.04,2.92 -6.59,5.33 -10.68,7.21 -4.07,1.88 -8.63,2.82 -13.65,2.82 -6.48,0 -12.19,-0.73 -17.1,-2.19 -4.91,-1.47 -9.57,-3.98 -13.96,-7.54l2.2 -10.67c1.67,1.05 3.66,1.93 5.97,2.67 2.3,0.73 4.49,1.1 6.59,1.1 5.44,0 9.94,-1.62 13.49,-4.86 3.56,-3.25 5.34,-6.96 5.34,-11.15 0,-4.81 -1.73,-8.89 -5.18,-12.24 -3.45,-3.35 -8,-5.02 -13.65,-5.02 -1.26,0 -2.56,0.11 -3.92,0.31 -1.36,0.21 -2.57,0.42 -3.61,0.63l5.34 -27.62c-17.16,-1.46 -33.11,-5.85 -47.86,-13.18 -14.75,-7.33 -27.56,-16.79 -38.44,-28.4 -10.88,-11.61 -19.41,-24.95 -25.57,-40.01 -6.18,-15.06 -9.26,-31.07 -9.26,-48.02 0,-18.2 3.51,-35.2 10.47,-50.99 6.95,-15.8 16.47,-29.61 28.55,-41.43 12.08,-11.82 26.26,-21.07 42.57,-27.77 16.32,-6.69 33.79,-10.04 52.41,-10.04 21.55,0 41.27,4.5 59.16,13.49 17.89,9 32.79,20.71 44.71,35.14l-33.57 34.52c-7.74,-11.09 -17.73,-20.03 -29.97,-26.83 -12.24,-6.8 -25.69,-10.2 -40.33,-10.2 -11.72,0 -22.75,2.24 -33.11,6.74 -10.35,4.5 -19.4,10.57 -27.14,18.2 -7.74,7.64 -13.86,16.53 -18.36,26.67 -4.5,10.15 -6.74,20.97 -6.74,32.48 0,11.3 2.24,22.02 6.74,32.16 4.55,10.15 10.68,19.04 18.47,26.67 7.74,7.64 16.84,13.7 27.2,18.2 10.41,4.5 21.49,6.75 33.21,6.75 15.54,0 29.24,-3.51 41.16,-10.51 11.92,-7.01 21.86,-16.27 29.81,-27.77l33.89 34.84zm244.21 -281.8c-0.21,6.48 -1.05,12.92 -2.51,19.3 -1.46,6.38 -3.87,12.13 -7.21,17.26 -3.35,5.13 -7.59,9.26 -12.71,12.39 -5.13,3.14 -11.46,4.71 -18.99,4.71 -4.81,0 -9.31,-0.73 -13.49,-2.2 -4.19,-1.46 -8.21,-3.03 -12.08,-4.7 -3.87,-1.67 -7.74,-3.24 -11.61,-4.71 -3.87,-1.46 -7.69,-2.19 -11.45,-2.19 -3.77,0 -6.59,1.46 -8.48,4.39 -1.88,2.93 -3.03,6.06 -3.45,9.41l-26.99 0c0,-6.28 0.79,-12.6 2.36,-18.98 1.57,-6.38 3.98,-12.13 7.21,-17.26 3.25,-5.12 7.48,-9.31 12.71,-12.55 5.23,-3.25 11.51,-4.87 18.83,-4.87 4.6,0 9.05,0.73 13.34,2.2 4.28,1.46 8.42,3.03 12.39,4.7 3.98,1.67 7.8,3.24 11.45,4.7 3.66,1.46 7.06,2.2 10.2,2.2 4.18,0 7.32,-1.36 9.41,-4.08 2.09,-2.72 3.45,-5.96 4.07,-9.73l26.99 0zm68.41 201.46c0,17.99 -3.51,34.94 -10.52,50.84 -7,15.9 -16.53,29.71 -28.66,41.42 -12.13,11.72 -26.25,20.97 -42.31,27.77 -16.1,6.81 -33.21,10.2 -51.41,10.2 -18.19,0 -35.35,-3.39 -51.57,-10.2 -16.16,-6.8 -30.33,-16.05 -42.47,-27.77 -12.13,-11.71 -21.66,-25.47 -28.66,-41.27 -7.01,-15.79 -10.51,-32.79 -10.51,-50.99 0,-18.2 3.51,-35.25 10.51,-51.15 7,-15.9 16.53,-29.71 28.66,-41.42 12.14,-11.71 26.31,-20.92 42.47,-27.62 16.22,-6.69 33.37,-10.04 51.57,-10.04 18.2,0 35.31,3.35 51.41,10.04 16.06,6.7 30.18,15.95 42.31,27.77 12.13,11.82 21.66,25.63 28.66,41.43 7.01,15.79 10.52,32.79 10.52,50.99zm-48.64 0c0,-11.51 -2.2,-22.33 -6.59,-32.48 -4.4,-10.15 -10.46,-19.03 -18.1,-26.67 -7.63,-7.63 -16.57,-13.7 -26.88,-18.2 -10.25,-4.5 -21.18,-6.74 -32.69,-6.74 -11.71,0 -22.75,2.24 -33,6.74 -10.3,4.5 -19.24,10.57 -26.88,18.2 -7.63,7.64 -13.7,16.53 -18.1,26.67 -4.39,10.15 -6.59,20.97 -6.59,32.48 0,11.3 2.2,22.07 6.59,32.32 4.4,10.25 10.47,19.2 18.1,26.83 7.64,7.63 16.58,13.7 26.88,18.2 10.25,4.49 21.29,6.74 33,6.74 11.51,0 22.44,-2.24 32.69,-6.74 10.3,-4.5 19.24,-10.57 26.88,-18.2 7.64,-7.64 13.7,-16.58 18.1,-26.83 4.39,-10.25 6.59,-21.02 6.59,-32.32zm283.12 125.52l-165.69 0 0 -250.74 165.69 0 0 40.18 -117.99 0 0 59.93 116.42 0 0 39.23 -116.42 0 0 69.03 117.99 0 0 42.37zm236.05 -65.9c0,9.41 -2.03,18.35 -6.12,26.83 -4.08,8.48 -9.78,15.95 -17.1,22.44 -7.32,6.48 -16,11.66 -26.04,15.53 -10.05,3.87 -21.13,5.81 -33.27,5.81 -10.87,0 -20.66,-0.63 -29.34,-1.88 -8.68,-1.26 -16.84,-3.24 -24.48,-5.96 -7.64,-2.72 -14.96,-6.23 -21.96,-10.51 -7.01,-4.28 -14.28,-9.46 -21.81,-15.53l34.52 -34.84c10.05,8.37 19.88,14.29 29.5,17.73 9.62,3.45 20.09,5.18 31.38,5.18 4.6,0 8.94,-0.68 13.02,-2.04 4.08,-1.36 7.63,-3.19 10.67,-5.49 3.04,-2.3 5.44,-5.02 7.22,-8.16 1.78,-3.14 2.67,-6.59 2.67,-10.36 0,-3.98 -0.73,-7.53 -2.2,-10.67 -1.46,-3.14 -4.08,-6.18 -7.84,-9.11 -3.77,-2.92 -9,-5.91 -15.69,-8.94 -6.7,-3.04 -15.27,-6.43 -25.73,-10.2 -9.21,-3.35 -18.05,-7.16 -26.52,-11.45 -8.48,-4.28 -15.9,-9.46 -22.28,-15.53 -6.38,-6.06 -11.51,-13.18 -15.38,-21.34 -3.87,-8.16 -5.81,-17.78 -5.81,-28.87 0,-10.68 2.14,-20.5 6.44,-29.5 4.28,-9 10.14,-16.68 17.57,-23.06 7.43,-6.38 16.11,-11.35 26.05,-14.91 9.93,-3.55 20.66,-5.34 32.16,-5.34 19.25,0 35.46,2.51 48.64,7.54 13.18,5.02 24.9,12.34 35.15,21.96l-33.9 34.2c-6.28,-6.06 -13.28,-10.72 -21.02,-13.96 -7.74,-3.24 -16.84,-4.86 -27.3,-4.86 -4.81,0 -9.25,0.73 -13.34,2.2 -4.08,1.46 -7.58,3.4 -10.51,5.81 -2.93,2.41 -5.29,5.23 -7.06,8.48 -1.78,3.24 -2.67,6.64 -2.67,10.19 0,3.98 0.84,7.59 2.51,10.83 1.67,3.24 4.5,6.38 8.47,9.41 3.98,3.03 9.26,6.06 15.85,9.1 6.59,3.04 14.8,6.33 24.63,9.88 12.55,4.4 23.32,9.2 32.32,14.44 8.99,5.23 16.31,10.98 21.97,17.26 5.64,6.27 9.83,13.34 12.55,21.18 2.72,7.84 4.08,16.68 4.08,26.52z"/>
   <path class="fil3" d="M7249 44.97c191.05,0 345.93,154.88 345.93,345.94 0,191.05 -154.88,345.93 -345.93,345.93 -191.05,0 -345.93,-154.88 -345.93,-345.93 0,-191.06 154.88,-345.94 345.93,-345.94z"/>
  </g>
 </g>
</svg>
