<?xml version="1.0" encoding="utf-8"?>
<!-- Generator: Adobe Illustrator 25.0.0, SVG Export Plug-In . SVG Version: 6.00 Build 0)  -->
<svg version="1.1" id="Camada_1" xmlns="http://www.w3.org/2000/svg" xmlns:xlink="http://www.w3.org/1999/xlink" x="0px" y="0px"
	 viewBox="0 0 87 76.8" style="enable-background:new 0 0 87 76.8;" xml:space="preserve">
<style type="text/css">
	.st0{opacity:0.05;fill:#e56f25;}
	.st1{opacity:0.05;fill:none;stroke:#e56f25;stroke-width:2;stroke-miterlimit:10;}
	.st2{opacity:0.05;fill:none;stroke:#e56f25;stroke-miterlimit:10;}
	.st3{opacity:0.05;fill:none;stroke:#e56f25;}
	.st4{opacity:0.05;fill:#e56f25;enable-background:new    ;}
</style>
<g>
	<g id="Ret창ngulo_248" transform="translate(108.5)">
		<path class="st2" d="M-98.9,4h46.5c2.1,0,3.9,1.7,3.9,3.9v62c0,2.1-1.7,3.9-3.9,3.9h-46.5c-2.1,0-3.9-1.7-3.9-3.9v-62
			C-102.8,5.8-101,4-98.9,4z"/>
		<path class="st3" d="M-98.9,4.7h46.5c1.8,0,3.2,1.4,3.2,3.2v62c0,1.8-1.4,3.2-3.2,3.2h-46.5c-1.8,0-3.2-1.4-3.2-3.2v-62
			C-102.1,6.1-100.7,4.7-98.9,4.7z"/>
	</g>
	<g id="Grupo_1611" transform="translate(113.004 42.143)">
		<path id="Caminho_17" class="st0" d="M-101.5,16.3h1.6v9.9h-1.6V16.3z M-98.9,26.2h0.9v-9.9h-0.9V26.2z M-97.3,26.2h0.9v-9.9h-0.9
			V26.2z M-95.3,26.2h2v-9.9h-2L-95.3,26.2z M-91.7,26.2h1v-9.9h-1V26.2z M-89.2,26.2h4.1v-9.9h-4.1L-89.2,26.2z M-78.5,26.2h1.3
			v-9.9h-1.3L-78.5,26.2z M-76,26.2h1.8v-9.9H-76L-76,26.2z M-83.4,26.2h0.9v-9.9h-0.9L-83.4,26.2z M-81.3,26.2h0.9v-9.9h-0.9V26.2z
			"/>
		<path id="Caminho_17-2" class="st0" d="M-75.9,16.3h1.6v9.9h-1.6V16.3z M-73.3,26.2h0.9v-9.9h-0.9V26.2z M-71.8,26.2h0.9v-9.9
			h-0.9V26.2z M-69.7,26.2h2v-9.9h-2L-69.7,26.2z M-66.1,26.2h1v-9.9h-1V26.2z M-63.6,26.2h4.1v-9.9h-4.1L-63.6,26.2z"/>
	</g>
	<rect id="Ret창ngulo_12" x="14.8" y="14.4" class="st4" width="36.2" height="3.9"/>
	<rect id="Ret창ngulo_13" x="14.8" y="20.8" class="st4" width="36.2" height="2.6"/>
	<rect id="Ret창ngulo_14" x="14.8" y="27.3" class="st4" width="36.2" height="2.6"/>
	<path id="Caminho_2538" class="st0" d="M62.8,21v0.6l3.6-2.5c1.2-0.8,2.8-0.5,3.7,0.7l11.3,16.6c0.8,1.2,0.5,2.8-0.7,3.7l-21,14.3
		v4l9.7-1c0.1,0,0.2-0.1,0.2-0.2c0.5-1.2,1.3-2.3,2.4-3c0.1-0.1,0.1-0.2,0.1-0.3l-0.6-6.3c0-0.4,0.3-0.8,0.7-0.9
		c0.4,0,0.8,0.3,0.9,0.7l0.6,6.3c0.1,0.7-0.3,1.4-0.9,1.8c-0.8,0.5-1.5,1.3-1.8,2.2c-0.3,0.7-0.9,1.2-1.6,1.2l-9.9,1v1L75,59.7
		c0.6-0.1,1-0.6,0.9-1.1c0,0,0,0,0,0l-1.2-12.6c0-0.4,0.3-0.8,0.7-0.9s0.8,0.3,0.9,0.7l0,0l1.3,12.6c0.1,1.5-0.9,2.7-2.4,2.9
		l-12.4,1.2l-1.7,0.2l-1.5,0.1v0.4h-0.1V18.2h0.4C61.6,18.2,62.8,19.5,62.8,21z M59.7,43.5c2.8-0.3,4.9-2.7,4.6-5.5
		c-0.2-2.4-2.2-4.4-4.6-4.6V43.5z M59.7,31.8c3.7,0,6.7,3,6.7,6.7s-3,6.7-6.7,6.7v4.1l14.1-9.6l0,0c0.1-0.1,0.1-0.1,0.1-0.2l0,0
		c-0.2-1.3,0.1-2.7,0.7-3.8c0-0.1,0-0.2,0-0.3l-5.9-8.7c-0.1-0.1-0.2-0.1-0.3-0.1c-1.3,0.2-2.7-0.1-3.8-0.7c-0.1-0.1-0.2-0.1-0.3,0
		L59.7,29L59.7,31.8z M59.7,27l3.8-2.6c0.6-0.4,1.3-0.4,2-0.1c0.9,0.5,1.8,0.7,2.8,0.6c0.7-0.1,1.4,0.2,1.8,0.8l5.9,8.6
		c0.4,0.6,0.4,1.4,0.1,2c-0.5,0.9-0.6,1.9-0.5,2.8c0.1,0.7-0.2,1.4-0.8,1.8L59.7,51.3v1.3l20.1-13.7c0.2-0.1,0.4-0.4,0.4-0.6V38
		c0-0.2-0.1-0.4-0.2-0.6L68.7,20.8c-0.3-0.5-0.9-0.6-1.4-0.3c0,0,0,0,0,0l-7.7,5.2L59.7,27z M59.7,19.9v3.9l1.5-1V21
		c0-0.6-0.5-1.1-1.1-1.1l0,0L59.7,19.9z"/>
</g>
</svg>
