<?xml version="1.0" encoding="UTF-8" standalone="no"?>
<!-- Created with Inkscape (http://www.inkscape.org/) -->

<svg
   xmlns:dc="http://purl.org/dc/elements/1.1/"
   xmlns:cc="http://creativecommons.org/ns#"
   xmlns:rdf="http://www.w3.org/1999/02/22-rdf-syntax-ns#"
   xmlns:svg="http://www.w3.org/2000/svg"
   xmlns="http://www.w3.org/2000/svg"
   xmlns:sodipodi="http://sodipodi.sourceforge.net/DTD/sodipodi-0.dtd"
   xmlns:inkscape="http://www.inkscape.org/namespaces/inkscape"
   version="1.1"
   id="svg2"
   xml:space="preserve"
   width="4096"
   height="4096"
   viewBox="0 0 4096 4095.9998"
   sodipodi:docname="sicoob-logo.svg"
   inkscape:export-filename="G:\Users\suitedoalex\sites\sicoob-logo-0.png"
   inkscape:export-xdpi="96"
   inkscape:export-ydpi="96"
   inkscape:version="0.92.2 (5c3e80d, 2017-08-06)"><metadata
     id="metadata8"><rdf:RDF><cc:Work
         rdf:about=""><dc:format>image/svg+xml</dc:format><dc:type
           rdf:resource="http://purl.org/dc/dcmitype/StillImage" /><dc:title></dc:title></cc:Work></rdf:RDF></metadata><defs
     id="defs6"><clipPath
       clipPathUnits="userSpaceOnUse"
       id="clipPath18"><path
         d="M 0,0 H 595.275 V 793.701 H 0 Z"
         id="path16"
         inkscape:connector-curvature="0" /></clipPath><clipPath
       clipPathUnits="userSpaceOnUse"
       id="clipPath44"><path
         d="M 0,0 H 595.275 V 793.701 H 0 Z"
         id="path42"
         inkscape:connector-curvature="0" /></clipPath><clipPath
       clipPathUnits="userSpaceOnUse"
       id="clipPath74"><path
         d="M 0,0 H 595.275 V 793.701 H 0 Z"
         id="path72"
         inkscape:connector-curvature="0" /></clipPath><clipPath
       clipPathUnits="userSpaceOnUse"
       id="clipPath114"><path
         d="M 0,0 H 595.275 V 793.701 H 0 Z"
         id="path112"
         inkscape:connector-curvature="0" /></clipPath><clipPath
       clipPathUnits="userSpaceOnUse"
       id="clipPath152"><path
         d="M 0,0 H 595.275 V 793.701 H 0 Z"
         id="path150"
         inkscape:connector-curvature="0" /></clipPath><clipPath
       clipPathUnits="userSpaceOnUse"
       id="clipPath268"><path
         d="M 0,0 H 595.275 V 793.701 H 0 Z"
         id="path266"
         inkscape:connector-curvature="0" /></clipPath><clipPath
       clipPathUnits="userSpaceOnUse"
       id="clipPath296"><path
         d="M 0,0 H 595.275 V 793.701 H 0 Z"
         id="path294"
         inkscape:connector-curvature="0" /></clipPath><clipPath
       clipPathUnits="userSpaceOnUse"
       id="clipPath114-1"><path
         d="M 0,0 H 595.275 V 793.701 H 0 Z"
         id="path112-4"
         inkscape:connector-curvature="0" /></clipPath></defs><sodipodi:namedview
     pagecolor="#ffffff"
     bordercolor="#666666"
     borderopacity="1"
     objecttolerance="10"
     gridtolerance="10"
     guidetolerance="10"
     inkscape:pageopacity="0"
     inkscape:pageshadow="2"
     inkscape:window-width="1600"
     inkscape:window-height="837"
     id="namedview4"
     showgrid="false"
     inkscape:zoom="0.055751476"
     inkscape:cx="6367.0259"
     inkscape:cy="268.56901"
     inkscape:window-x="-8"
     inkscape:window-y="-8"
     inkscape:window-maximized="1"
     inkscape:current-layer="g10" /><g
     id="g10"
     inkscape:groupmode="layer"
     inkscape:label="sicoob"
     transform="matrix(1.3333333,0,0,-1.3333333,0,4096.0001)"><g
       transform="matrix(17.244318,0,0,17.244318,-6827.7752,476.41868)"
       id="g108"><g
         id="g110"
         clip-path="url(#clipPath114-1)"><g
           id="g116"
           transform="translate(551.0618,44.2963)"><path
             d="M 0,0 C 0,0.421 0.283,0.712 0.69,0.712 1.086,0.712 1.364,0.429 1.372,0 1.372,-0.407 1.094,-0.705 0.673,-0.705 0.283,-0.705 0,-0.407 0,0"
             style="fill:#ffffff;fill-opacity:1;fill-rule:nonzero;stroke:none"
             id="path118"
             inkscape:connector-curvature="0" /></g><g
           id="g120"
           transform="translate(504.1545,74.4531)"
           style="fill:#003c44;fill-opacity:1"><path
             d="m 0,0 h -0.121 c -6.14,-0.061 -9.934,-4.719 -9.934,-10.563 0,-5.609 3.453,-10.323 9.725,-10.323 h 0.031 0.178 c 6.107,0.081 9.934,4.207 9.934,10.656 C 9.813,-4.833 6.513,0 0,0 m -0.059,-16.598 -0.06,0.007 h -0.002 c -2.609,0 -4.23,2.522 -4.2,6.148 0,3.512 1.591,6.155 4.2,6.155 h 0.002 c 2.644,0 4.202,-2.643 4.202,-6.125 0,-3.661 -1.53,-6.185 -4.142,-6.185 M 21.607,0 h -0.118 c -6.142,-0.061 -9.936,-4.719 -9.936,-10.563 0,-5.609 3.456,-10.323 9.727,-10.323 h 0.026 0.183 c 6.105,0.081 9.933,4.207 9.933,10.656 0,5.397 -3.299,10.23 -9.815,10.23 m -0.059,-16.598 -0.059,0.007 c -2.611,0 -4.233,2.517 -4.201,6.148 0,3.512 1.59,6.155 4.201,6.155 2.642,0 4.202,-2.643 4.202,-6.125 0,-3.661 -1.528,-6.185 -4.143,-6.185 m 23.504,6.969 v 0.057 c 2.374,0.901 3.303,2.554 3.303,4.232 0,1.978 -1.14,3.418 -2.729,4.17 -1.329,0.663 -2.781,0.914 -4.953,0.975 -0.388,0.013 -0.794,0.013 -1.234,0.013 -2.486,0 -5.158,-0.207 -6.391,-0.444 v -19.81 c 1.082,-0.212 2.881,-0.362 5.345,-0.362 0.821,0 1.581,0.024 2.28,0.075 2.964,0.2 4.846,0.808 6.061,1.729 1.352,1.019 2.278,2.522 2.278,4.443 0,2.399 -1.496,4.232 -3.96,4.922 m -6.633,5.427 c 0.363,0.064 0.872,0.126 1.772,0.126 0.166,0 0.328,-0.013 0.482,-0.026 1.509,-0.117 2.25,-0.832 2.25,-1.896 0,-1.051 -0.736,-1.784 -2.25,-2.022 -0.351,-0.05 -0.74,-0.081 -1.171,-0.081 h -1.083 z m 2.254,-12.596 c -0.227,-0.025 -0.457,-0.037 -0.689,-0.037 -0.693,0 -1.17,0 -1.565,0.062 v 4.827 h 1.293 c 0.335,0 0.655,-0.013 0.961,-0.05 1.546,-0.194 2.642,-0.889 2.642,-2.316 0,-1.565 -1.159,-2.317 -2.642,-2.486 m -75.516,16.46 v -20.216 h 5.43 v 16.916 c 0,2.537 -1.378,3.3 -5.43,3.3 m -7.894,-7.976 c -2.553,0.956 -3.633,1.353 -3.633,2.373 0,0.894 0.902,1.495 2.554,1.495 2.009,0 4.01,-0.744 4.379,-0.959 0.764,2.074 1.204,5.373 -4.322,5.373 -5.099,0 -8.131,-2.761 -8.131,-6.335 0,-2.998 2.281,-4.859 5.702,-6.086 2.279,-0.783 3.181,-1.328 3.181,-2.316 0,-1.021 -0.902,-1.648 -2.762,-1.648 -2.038,0 -4.021,0.627 -5.249,1.259 l -1.022,-4.47 c 1.141,-0.601 3.511,-1.234 5.942,-1.234 5.913,0 8.613,2.975 8.613,6.456 -10e-4,2.817 -1.619,4.74 -5.252,6.092 m 27.521,-8.04 c -3.724,0 -5.912,2.285 -5.912,5.941 0,4.115 2.7,5.943 5.792,5.943 1.62,0 3.295,-0.476 3.753,-0.72 0.953,2.185 0.723,5.158 -3.992,5.158 -6.034,0 -11.256,-3.624 -11.256,-10.737 0,-5.378 3.329,-10.085 10.896,-10.085 2.402,0 4.323,0.45 5.072,0.837 l -0.749,4.233 c -0.842,-0.331 -2.313,-0.57 -3.604,-0.57"
             style="fill:#003c44;fill-opacity:1;fill-rule:nonzero;stroke:none"
             id="path122"
             inkscape:connector-curvature="0" /></g><g
           id="g124"
           transform="translate(430.3701,67.8372)"><path
             d="M 0,0 3.667,6.334 0.703,11.462 H -11.79 c -0.266,-0.026 -0.535,-0.1 -0.783,-0.244 -0.598,-0.344 -0.933,-0.971 -0.931,-1.616 0,-0.282 0.062,-0.563 0.196,-0.832 l 9.166,-15.928 2.972,5.14 h 0.002 L 0,0"
             style="fill:#75c044;fill-opacity:1;fill-rule:nonzero;stroke:none"
             id="path126"
             inkscape:connector-curvature="0" /></g><g
           id="g128"
           transform="translate(431.0726,79.2988)"><path
             d="m 0,0 7.796,-13.48 h 5.482 0.441 l 6.231,10.826 c 0.113,0.236 0.184,0.507 0.184,0.795 0,0.988 -0.779,1.796 -1.759,1.859 z"
             style="fill:#00ae9d;fill-opacity:1;fill-rule:nonzero;stroke:none"
             id="path130"
             inkscape:connector-curvature="0" /></g><g
           id="g132"
           transform="translate(444.3504,65.8189)"><path
             d="m 0,0 h -15.149 l -2.974,-5.139 6.274,-10.807 c 0.154,-0.226 0.352,-0.42 0.599,-0.564 0.292,-0.169 0.611,-0.25 0.929,-0.25 0.608,0 1.204,0.305 1.56,0.845 L 0.441,0 Z"
             style="fill:#bfd730;fill-opacity:1;fill-rule:nonzero;stroke:none"
             id="path134"
             inkscape:connector-curvature="0" /></g></g></g></g></svg>